; NON-PLATED HOLES START AT T1
; THROUGH (PLATED) HOLES START AT T100
M48
INCH
T100C0.043307
T101C0.038000
T102C0.040278
T103C0.035000
%
T100
X003988Y006104
T101
X004988Y014104
X004988Y012104
X007988Y006104
X003988Y016104
X004988Y013104
X020988Y005104
X004988Y016104
X004988Y011104
X017988Y002104
X018988Y005104
X021988Y005104
X022988Y005104
X017988Y005104
X004988Y015104
X003988Y015104
X003988Y013104
X003988Y012104
X020988Y006104
X018988Y006104
X017988Y006104
X019988Y005104
X003988Y011104
X003988Y014104
X016988Y002104
X019988Y006104
X021988Y006104
X022988Y006104
T102
X021988Y001104
X010988Y001104
X023988Y020104
X011388Y020104
X023988Y001104
X016388Y020104
X012988Y001104
X020988Y001104
X010388Y020104
X022988Y001104
X024988Y001104
X017988Y020104
X015388Y020104
X018988Y020104
X014388Y020104
X020988Y020104
X013388Y020104
X013988Y001104
X008388Y020104
X016988Y001104
X021988Y020104
X017988Y001104
X014988Y001104
X019988Y020104
X022988Y020104
X007388Y020104
X019988Y001104
X012388Y020104
X015988Y001104
X009388Y020104
X011988Y001104
X024988Y020104
T103
X009988Y015104
X005988Y014104
X018988Y010104
X017988Y014104
X021988Y014104
X022988Y014104
X022988Y010104
X009988Y013104
X009988Y016104
X019988Y010104
X005988Y016104
X020988Y014104
X005988Y015104
X009988Y014104
X005988Y012104
X009988Y011104
X021988Y010104
X005988Y013104
X019988Y014104
X005988Y011104
X018988Y014104
X009988Y012104
X020988Y010104
X017988Y010104
T00
M30
