G04 MADE WITH FRITZING*
G04 WWW.FRITZING.ORG*
G04 DOUBLE SIDED*
G04 HOLES PLATED*
G04 CONTOUR ON CENTER OF CONTOUR VECTOR*
%ASAXBY*%
%FSLAX23Y23*%
%MOIN*%
%OFA0B0*%
%SFA1.0B1.0*%
%ADD10C,0.065278*%
%ADD11C,0.075000*%
%ADD12C,0.078000*%
%ADD13C,0.083307*%
%ADD14C,0.024000*%
%LNCOPPER1*%
G90*
G70*
G54D10*
X2099Y110D03*
X2199Y110D03*
X2299Y110D03*
X2399Y110D03*
X2499Y110D03*
X1639Y2010D03*
X1539Y2010D03*
X1439Y2010D03*
X1339Y2010D03*
X1239Y2010D03*
X1139Y2010D03*
X1039Y2010D03*
X939Y2010D03*
X839Y2010D03*
X739Y2010D03*
X2499Y2010D03*
X2399Y2010D03*
X2299Y2010D03*
X2199Y2010D03*
X2099Y2010D03*
X1999Y2010D03*
X1899Y2010D03*
X1799Y2010D03*
X1199Y110D03*
X1099Y110D03*
X1299Y110D03*
X1399Y110D03*
X1499Y110D03*
X1599Y110D03*
X1699Y110D03*
X1799Y110D03*
X1999Y110D03*
G54D11*
X1799Y1010D03*
X1799Y1410D03*
X1899Y1010D03*
X1899Y1410D03*
X1999Y1010D03*
X1999Y1410D03*
X2099Y1010D03*
X2099Y1410D03*
X2199Y1010D03*
X2199Y1410D03*
X2299Y1010D03*
X2299Y1410D03*
X999Y1610D03*
X599Y1610D03*
X999Y1510D03*
X599Y1510D03*
X999Y1410D03*
X599Y1410D03*
X999Y1310D03*
X599Y1310D03*
X999Y1210D03*
X599Y1210D03*
X999Y1110D03*
X599Y1110D03*
G54D12*
X399Y1110D03*
X499Y1110D03*
X399Y1210D03*
X499Y1210D03*
X399Y1310D03*
X499Y1310D03*
X399Y1410D03*
X499Y1410D03*
X399Y1510D03*
X499Y1510D03*
X399Y1610D03*
X499Y1610D03*
X2299Y610D03*
X2299Y510D03*
X2199Y610D03*
X2199Y510D03*
X2099Y610D03*
X2099Y510D03*
X1999Y610D03*
X1999Y510D03*
X1899Y610D03*
X1899Y510D03*
X1799Y610D03*
X1799Y510D03*
G54D13*
X399Y610D03*
G54D12*
X799Y610D03*
X1799Y210D03*
X1699Y210D03*
G54D14*
X1136Y1979D02*
X1099Y1611D01*
D02*
X1099Y1611D02*
X1027Y1611D01*
D02*
X1199Y1611D02*
X1024Y1523D01*
D02*
X1236Y1979D02*
X1199Y1611D01*
D02*
X529Y1610D02*
X570Y1610D01*
D02*
X529Y1510D02*
X570Y1510D01*
D02*
X529Y1410D02*
X570Y1410D01*
D02*
X529Y1310D02*
X570Y1310D01*
D02*
X529Y1210D02*
X570Y1210D01*
D02*
X529Y1110D02*
X570Y1110D01*
D02*
X1299Y1611D02*
X1023Y1426D01*
D02*
X1336Y1979D02*
X1299Y1611D01*
D02*
X1436Y1979D02*
X1398Y1611D01*
D02*
X1398Y1611D02*
X1022Y1328D01*
D02*
X1498Y1611D02*
X1021Y1228D01*
D02*
X1536Y1979D02*
X1498Y1611D01*
D02*
X1598Y1611D02*
X1021Y1129D01*
D02*
X1636Y1979D02*
X1598Y1611D01*
D02*
X399Y1180D02*
X399Y1141D01*
D02*
X399Y1241D02*
X399Y1280D01*
D02*
X399Y1341D02*
X399Y1380D01*
D02*
X399Y1441D02*
X399Y1480D01*
D02*
X399Y1541D02*
X399Y1580D01*
D02*
X399Y1641D02*
X398Y1711D01*
D02*
X999Y1711D02*
X1035Y1979D01*
D02*
X398Y1711D02*
X999Y1711D01*
D02*
X800Y311D02*
X1999Y311D01*
D02*
X1999Y311D02*
X1999Y142D01*
D02*
X799Y580D02*
X800Y311D01*
D02*
X399Y1080D02*
X399Y643D01*
D02*
X2398Y1011D02*
X2117Y635D01*
D02*
X2306Y1383D02*
X2398Y1011D01*
D02*
X2398Y1510D02*
X2500Y1011D01*
D02*
X2198Y1510D02*
X2398Y1510D01*
D02*
X2500Y1011D02*
X2217Y634D01*
D02*
X2199Y1439D02*
X2198Y1510D01*
D02*
X2599Y1011D02*
X2317Y635D01*
D02*
X2500Y1611D02*
X2599Y1011D01*
D02*
X2099Y1611D02*
X2500Y1611D01*
D02*
X2099Y1439D02*
X2099Y1611D01*
D02*
X1199Y1110D02*
X1699Y1610D01*
D02*
X1699Y1610D02*
X1999Y1610D01*
D02*
X1999Y1610D02*
X1999Y1439D01*
D02*
X1776Y630D02*
X1199Y1110D01*
D02*
X1300Y1110D02*
X1699Y1509D01*
D02*
X1699Y1509D02*
X1898Y1509D01*
D02*
X1898Y1509D02*
X1899Y1439D01*
D02*
X1876Y630D02*
X1300Y1110D01*
D02*
X1499Y1110D02*
X1978Y632D01*
D02*
X1779Y1390D02*
X1499Y1110D01*
D02*
X469Y1510D02*
X429Y1510D01*
G04 End of Copper1*
M02*