G04 MADE WITH FRITZING*
G04 WWW.FRITZING.ORG*
G04 DOUBLE SIDED*
G04 HOLES PLATED*
G04 CONTOUR ON CENTER OF CONTOUR VECTOR*
%ASAXBY*%
%FSLAX23Y23*%
%MOIN*%
%OFA0B0*%
%SFA1.0B1.0*%
%ADD10C,0.075278*%
%ADD11C,0.085000*%
%ADD12C,0.088000*%
%ADD13C,0.093307*%
%LNMASK0*%
G90*
G70*
G54D10*
X2099Y110D03*
X2199Y110D03*
X2299Y110D03*
X2399Y110D03*
X2499Y110D03*
X1639Y2010D03*
X1539Y2010D03*
X1439Y2010D03*
X1339Y2010D03*
X1239Y2010D03*
X1139Y2010D03*
X1039Y2010D03*
X939Y2010D03*
X839Y2010D03*
X739Y2010D03*
X2499Y2010D03*
X2399Y2010D03*
X2299Y2010D03*
X2199Y2010D03*
X2099Y2010D03*
X1999Y2010D03*
X1899Y2010D03*
X1799Y2010D03*
X1199Y110D03*
X1099Y110D03*
X1299Y110D03*
X1399Y110D03*
X1499Y110D03*
X1599Y110D03*
X1699Y110D03*
X1799Y110D03*
X1999Y110D03*
G54D11*
X1799Y1010D03*
X1799Y1410D03*
X1899Y1010D03*
X1899Y1410D03*
X1999Y1010D03*
X1999Y1410D03*
X2099Y1010D03*
X2099Y1410D03*
X2199Y1010D03*
X2199Y1410D03*
X2299Y1010D03*
X2299Y1410D03*
X999Y1610D03*
X599Y1610D03*
X999Y1510D03*
X599Y1510D03*
X999Y1410D03*
X599Y1410D03*
X999Y1310D03*
X599Y1310D03*
X999Y1210D03*
X599Y1210D03*
X999Y1110D03*
X599Y1110D03*
G54D12*
X399Y1110D03*
X499Y1110D03*
X399Y1210D03*
X499Y1210D03*
X399Y1310D03*
X499Y1310D03*
X399Y1410D03*
X499Y1410D03*
X399Y1510D03*
X499Y1510D03*
X399Y1610D03*
X499Y1610D03*
X2299Y610D03*
X2299Y510D03*
X2199Y610D03*
X2199Y510D03*
X2099Y610D03*
X2099Y510D03*
X1999Y610D03*
X1999Y510D03*
X1899Y610D03*
X1899Y510D03*
X1799Y610D03*
X1799Y510D03*
G54D13*
X399Y610D03*
G54D12*
X799Y610D03*
X1799Y210D03*
X1699Y210D03*
G04 End of Mask0*
M02*